PathFileType	4	(X/Y/Z)	T1_P1_NoVision_NoMovement_4_0-615.trc
DataRate	CameraRate	NumFrames	NumMarkers	Units	OrigDataRate	OrigDataStartFrame	OrigNumFrames
60	60	6	27	m	60	461	615
Frame#	Time	RHip			RKnee			RAnkle			RBigToe			RSmallToe			RHeel			LHip			LKnee			LAnkle			LBigToe			LSmallToe			LHeel			Neck			Head			Nose			RShoulder			RElbow			RWrist			RThumb			RIndex			RPinky			LShoulder			LElbow			LWrist			LThumb			LIndex			LPinky		
		X1	Y1	Z1	X2	Y2	Z2	X3	Y3	Z3	X4	Y4	Z4	X5	Y5	Z5	X6	Y6	Z6	X7	Y7	Z7	X8	Y8	Z8	X9	Y9	Z9	X10	Y10	Z10	X11	Y11	Z11	X12	Y12	Z12	X13	Y13	Z13	X14	Y14	Z14	X15	Y15	Z15	X16	Y16	Z16	X17	Y17	Z17	X18	Y18	Z18	X19	Y19	Z19	X20	Y20	Z20	X21	Y21	Z21	X22	Y22	Z22	X23	Y23	Z23	X24	Y24	Z24	X25	Y25	Z25	X26	Y26	Z26	X27	Y27	Z27
462	7.7	-66.55190051762469	3788.865908210193	-545.9925739893122	289.99216491253685	3874.6173306928217	-546.1817607828946	651.0978418334025	4181.576868561844	-595.5170935289303	703.4751535055368	3977.1691325106485	-496.9240640373289	715.1931073235239	4032.2933872419853	-598.465485455371	683.0973200464732	4199.894450931362	-566.2816479267693	-107.9369924316839	3900.615057438375	-358.52104674732476	240.1130489832993	4008.620197861146	-359.91532750944805	586.6467237940858	4198.799437651134	-385.85485177928706	679.8852405672384	4141.374787948443	-333.95096772681916	633.277227133181	4141.108884086843	-293.9046202716778	621.9024507148499	4228.011633468593	-416.45812153197346	-661.3677467963896	3674.459220081462	-484.35191442049484	-901.4158043923131	3518.9999804634604	-431.95542812670584	-747.9623317538392	3537.105296914522	-397.88767198708473	-558.4585263500541	3651.132255931149	-643.3402772016032	-284.2316180975779	3740.5270752499514	-695.2859348200911	-31.563235693442646	3704.442461240369	-608.2669255660326	75.13192333773853	3793.11742968191	-574.685786285476	93.65206456828216	3797.541762739295	-576.354599146707	84.78017980052698	3769.5348457111595	-588.0839632877295	-606.4886308322577	3765.1503280243483	-348.82111052032474	-388.08863953394604	3982.3152791794564	-345.0488982860062	-121.71057560397897	3922.666713866096	-296.3431363423109	8.011543568872577	3928.481874707141	-325.87318964616213	31.81483565432091	3949.259098161636	-308.20735686422984	7.673524201432036	3976.402686567036	-253.22195687556547
463	7.716666666666667	-66.5626700701999	3788.8523904752988	-546.00748723228	289.888565305895	3876.5048261939464	-546.032024882968	653.3114946229425	4188.015758115331	-599.8107886100953	705.0865751374938	3976.846403555234	-498.0283660305352	715.5140990493967	4031.858671394586	-598.2727704745153	683.3161455226722	4203.169652906886	-568.5018315696146	-107.78739129204676	3900.9984180994625	-359.9686615558335	239.65136910706454	4001.245350435084	-358.5437500378379	585.3822477051451	4197.941044504145	-385.5051249604811	682.0897555349295	4149.768326189378	-339.1533104684956	635.0528533888042	4145.79225164662	-297.0309032756038	619.3085806518434	4221.427166058367	-414.5442838439716	-661.3824777089869	3674.44325302769	-484.3766103908437	-901.4411184172253	3518.9794899259114	-431.97800249607815	-749.0470303093141	3536.6284227473166	-397.8232732154528	-558.587755705616	3652.450473410199	-644.4803073529665	-283.1145547309518	3746.804990838008	-700.2948718924902	-32.05664138421672	3703.737487100824	-607.9906565646895	75.49632971381381	3793.518401351817	-575.0277118361296	93.75028883815482	3797.656174191056	-576.4233492646202	84.61787776145145	3761.896698909136	-586.2972580556412	-606.4836999676747	3765.1581039288985	-348.83231808653557	-387.6683847805751	3982.563905799768	-345.11906996004444	-120.92903773772983	3923.2934122755423	-296.6099455509936	8.471384677037967	3928.746711351225	-325.9909865015356	31.73960063872733	3949.129048159579	-308.06514594516017	7.528670559149864	3980.16027068865	-253.02102267425107
464	7.733333333333333	-66.57213131513528	3788.8587364158107	-546.0177003150935	290.43565939907836	3881.064840915672	-548.7001163292723	655.5527260538283	4190.896306427773	-601.2375692003548	705.4764289475077	3969.3731387951448	-496.75034546213	717.0385208128855	4029.503403317415	-597.3762405180216	684.0089298613984	4204.918484882984	-569.1214022083151	-107.63478455877517	3901.453508304109	-361.6383560796217	239.1467629546919	3991.522385499574	-356.7646236889913	584.3703059941546	4196.668473997879	-384.73818297597853	684.1184791333973	4156.5605913766985	-343.2075526256396	637.3542480310066	4150.882631489026	-300.2257454702817	616.5195767371622	4214.966515547717	-411.57497390550077	-661.3892013411194	3674.451965658416	-484.40191899218235	-901.4445462335266	3518.9586158293805	-432.0597020082208	-749.4658618397091	3536.6830741101085	-397.97180218647	-558.607439771482	3652.605909325253	-644.637703887408	-282.64256453536507	3751.5250155023214	-704.1168167999692	-32.0951750918518	3701.4639220820327	-607.2844470783773	76.24453468693183	3794.0902597483296	-575.2775870117462	94.23941379319753	3797.6887391491778	-576.389484950815	84.58101035423233	3759.5256017474644	-585.7398647404771	-606.4733646450796	3765.2100974179148	-348.85096092235017	-386.8848664242764	3983.1902257935553	-345.39034727319705	-120.39627637255326	3923.384965665912	-296.7477945690807	9.453366391927068	3929.3513149148453	-326.25501279050184	32.00176383893471	3948.8801259662464	-306.6080100112645	7.492765902707175	3984.805833826163	-253.59226961268158
465	7.75	-66.56904258595597	3788.940626403451	-546.0441337567191	291.5654477565256	3885.7569024870063	-552.0987554164359	656.6527359265364	4189.5771007703715	-599.6956302393684	705.3337740724952	3960.008682806595	-495.0489165670016	719.4275600974051	4025.9202020043826	-596.0893977937503	685.3737356018768	4204.095530205646	-567.5065614720804	-107.56815529310765	3901.736986014221	-362.5076493862151	238.8062794114636	3983.905028906653	-355.38916443747047	584.6879046635219	4194.8697754482455	-383.2429342655937	685.8226174213794	4160.12933141318	-344.9855303736589	639.4872295586509	4154.765398126591	-301.9207671053291	615.5623974005007	4211.932674866896	-408.56687794726554	-661.4126379052628	3674.4864345052383	-484.4253403557382	-901.4333939872538	3518.957072594178	-432.1827825647722	-748.6992656647341	3537.3905050209905	-398.2876542788999	-558.5902913339474	3652.379719801314	-644.46908225677	-282.62492753698507	3753.345949610675	-705.6316794178001	-31.9461606213735	3697.791128036676	-606.2007592342165	76.68090611680532	3794.3172313022633	-575.3345235762332	94.99761961925961	3797.6330138381686	-576.2785793350615	84.67834487964576	3762.844850860146	-586.513883545605	-606.4593789048487	3765.287299815076	-348.8685358490289	-386.3803767387329	3983.710450387738	-345.6091901739607	-120.23294218089322	3922.898416783936	-296.7112947383632	10.628394476764683	3930.117018839676	-326.5843889113985	32.681359660797504	3948.4063522060624	-304.90587830426887	7.5046562170432765	3990.1409968144762	-254.54686196366416
466	7.766666666666667	-66.54200438869753	3789.0722162540533	-546.0840598724974	292.907904861428	3888.197976681236	-553.9907384383878	655.6246681139481	4185.756506007188	-596.9888997266485	706.1592776163217	3955.144877418442	-494.49811879086326	721.953173785919	4024.8281504677416	-595.6594734977406	687.2509273512915	4202.146416866031	-565.1294799779362	-107.55339999620716	3901.8648488899084	-362.673203913602	238.7097756425186	3980.5351343411817	-354.80707379686197	586.6195648691381	4193.181453024657	-381.4652544215032	686.8961165984579	4160.701058251279	-344.86553408500384	640.9725176449324	4157.1989281519145	-302.1433967242052	617.5580950531514	4214.918698505177	-407.5223231956381	-661.4366833795456	3674.5270421701994	-484.43856453191273	-901.4228004572689	3518.9794906923626	-432.157197596531	-747.4068084565072	3538.258084825523	-398.57989492106765	-558.5697510671398	3652.1923922518945	-644.3271556407021	-282.7046593528667	3753.287459511015	-705.638510209382	-31.772398881095885	3695.1829237492066	-605.6131549092428	76.45158259249612	3794.047993060569	-575.1695584693102	95.36199316031832	3797.5583233185816	-576.198482034368	84.84942436029495	3770.329380369956	-588.2764719845425	-606.4463295372798	3765.3397487932907	-348.87131780335824	-386.25535231505114	3983.888018430121	-345.5072574779172	-120.26012456691693	3922.933024387906	-296.7307318200239	11.65772419623346	3930.8256923255594	-326.8845220523299	33.56948190229559	3947.175499543292	-303.7864774509396	7.519983079251693	3994.801756101543	-255.4243070282058
467	7.783333333333333	-66.49147394306792	3789.145792606384	-546.107157427009	294.0060994851802	3888.4720876037213	-554.2359676174104	653.5810228315362	4183.29478761976	-595.805207586703	707.8988446815509	3956.24635583573	-494.2576847453678	724.3425833303688	4028.5010082630497	-596.6835737816517	688.936485050982	4201.743929954259	-564.5055667937547	-107.53384002565946	3901.9286822402287	-362.59079093022314	238.81567238076488	3980.8210642406757	-354.90937100803734	589.1593589531976	4193.47971103082	-381.08813674132887	686.8230028688231	4157.9317357377395	-342.8842276592531	642.212026040311	4158.811308851501	-301.2879784950527	621.2589531414221	4223.846914924316	-410.0087877049606	-661.4342059638662	3674.5505929794163	-484.44027452125584	-901.4251806046211	3518.994860245061	-431.55280678993205	-746.5970327570975	3538.7746682861084	-398.7349427968429	-558.5501987967137	3652.1270072983207	-644.2821148470098	-282.7329919972969	3752.7639519059144	-705.268331846732	-31.62943430069841	3694.2610540995024	-606.1049631762417	75.64194298740256	3793.4825332647224	-574.8894205536039	94.86722907343052	3797.542734468858	-576.2263201197519	84.95060509267289	3777.0661489612876	-589.8630284016476	-606.4383946002521	3765.322541993346	-348.847785644627	-386.3030172991396	3983.6537903919952	-344.8264977718855	-120.37228939795085	3925.81864188344	-297.27309145005034	12.211451153171721	3931.2348115291898	-327.0527844632992	34.32464094077621	3945.2155214110767	-302.9343539062478	7.544937468379324	3997.1511192330013	-255.87542151244318
